# xmcd
#
# Track frame offsets:
#	150
#	15167
#	28987
#	46937
#	67407
#	86235
#	98325
#	114255
#	132430
#	148212
#	170057
#	184812
#	204247
#	217482
#	230435
#	246902
#	262410
#	276930
#
# Disc length: 3857
#
# Revision: 3
# Processed by: cddbd v1.5.1PL0 Copyright (c) Steve Scherf et al.
# Submitted via: ExactAudioCopy v0.90b4
# Normalized: r1:DSETVAR1,TDELIM( - ),TSWAP
#
DISCID=1b0f0f12
DTITLE=Various Artist - Today's Most Requested Country Love Songs '93
DYEAR=1993
DGENRE=Country
TTITLE0=Billy Dean - If There Hadn't Been You
TTITLE1=Tanya Tucker - If Your Heart Ain't Busy Tonight
TTITLE2=Vince Gill - I Still Belive In You
TTITLE3=Suzy Bogguss - Letting Go
TTITLE4=Mark Chesnutt - I'll Think Of Something
TTITLE5=Patrica Conroy - My Baby Loves Me (Just The Way That I Am)
TTITLE6=Paul Overstreet - Daddy' Come Around
TTITLE7=McBride and The Ride - Going Out Of My Mind
TTITLE8=Marty Stuart (with Travis Tritt) - Thus One's Gonna Hurt (For A Long, Long Time)
TTITLE9=The Judds - Love Can Build A Bridge
TTITLE10=Keith Whitley - I WOnder Do You Think Of Me
TTITLE11=Reba McEntire - For My Briken Heart
TTITLE12=Lee Greenwood - Between A Rock And A Heartache
TTITLE13=Don Williams - True Love
TTITLE14=Restless Heart - When Somebody Loves You
TTITLE15=George Fox - Spice Of Life
TTITLE16=Johnny Lee (with Roe McCaw) - Together (The New Wedding Song)
TTITLE17=The Remingtons - I Could Love You (With My Eyes Closed)
EXTD=
EXTT0=
EXTT1=
EXTT2=
EXTT3=
EXTT4=
EXTT5=
EXTT6=
EXTT7=
EXTT8=
EXTT9=
EXTT10=
EXTT11=
EXTT12=
EXTT13=
EXTT14=
EXTT15=
EXTT16=
EXTT17=
PLAYORDER=
